<?xml version="1.0" standalone="no"?>
<!DOCTYPE svg PUBLIC "-//W3C//DTD SVG 20010904//EN"
 "http://www.w3.org/TR/2001/REC-SVG-20010904/DTD/svg10.dtd">
<svg version="1.0" xmlns="http://www.w3.org/2000/svg"
 width="376.000000pt" height="376.000000pt" viewBox="0 0 376.000000 376.000000"
 preserveAspectRatio="xMidYMid meet">
<metadata>
Created by potrace 1.14, written by Peter Selinger 2001-2017
</metadata>
<g transform="translate(0.000000,376.000000) scale(0.100000,-0.100000)"
fill="#000000" stroke="none">
<path d="M719 2760 c-87 -15 -163 -71 -203 -148 -46 -91 -44 -238 5 -340 54
-110 154 -160 301 -149 l77 6 18 -29 c16 -28 21 -30 80 -30 35 0 63 3 63 7 0
3 -16 30 -36 59 l-37 53 28 33 c38 44 56 91 65 163 15 124 -23 252 -92 310
-67 57 -171 82 -269 65z m131 -125 c71 -37 109 -140 90 -242 -5 -29 -15 -63
-21 -75 -11 -21 -11 -21 -28 5 -14 25 -21 27 -78 27 -35 0 -63 -4 -63 -8 0 -5
13 -26 30 -48 16 -21 30 -42 30 -46 0 -16 -76 -7 -107 12 -86 52 -110 238 -41
325 48 61 126 82 188 50z"/>
<path d="M2570 2655 l0 -57 -42 2 c-74 4 -89 1 -119 -29 l-29 -29 0 29 0 29
-65 0 -65 0 0 -235 0 -235 65 0 65 0 0 151 0 151 29 29 c21 21 39 29 64 29 19
0 49 3 66 6 l31 7 1 -134 c0 -205 22 -242 146 -243 l68 -1 3 48 c3 42 1 47
-18 47 -12 0 -30 5 -41 10 -17 10 -19 22 -19 140 l0 130 39 0 c39 0 40 1 43
37 2 30 15 1 78 -177 41 -118 76 -219 78 -226 6 -25 -36 -54 -79 -54 l-40 0 3
-47 3 -48 75 0 c90 1 134 22 167 82 20 36 183 503 183 524 0 6 -29 9 -67 7
l-68 -3 -33 -120 c-18 -66 -40 -145 -49 -175 l-16 -55 -34 125 c-19 69 -41
149 -49 178 l-15 52 -109 0 -109 0 -3 53 -3 52 -67 3 -68 3 0 -56z"/>
<path d="M1941 2599 c-62 -12 -116 -53 -143 -108 -19 -37 -23 -63 -23 -132 0
-78 3 -90 30 -135 44 -71 98 -98 195 -99 64 0 82 4 123 28 43 25 87 84 87 117
0 6 -25 10 -60 10 -45 0 -62 -4 -67 -15 -7 -19 -55 -45 -83 -45 -33 0 -75 26
-88 55 -25 54 -25 54 146 57 l157 3 -3 55 c-10 152 -119 237 -271 209z m116
-121 c11 -11 23 -28 26 -39 5 -18 -1 -19 -89 -19 -85 0 -93 2 -87 18 24 68 98
88 150 40z"/>
<path d="M1099 2596 c-3 -3 22 -110 55 -236 l61 -231 69 3 69 3 39 150 c21 82
40 151 42 152 2 2 21 -65 42 -149 l39 -153 70 -3 70 -3 59 223 c32 123 59 228
60 233 0 6 -27 11 -61 13 -52 2 -62 0 -66 -15 -3 -10 -18 -79 -33 -153 -15
-74 -30 -138 -34 -143 -3 -4 -23 65 -44 153 l-38 161 -61 -3 -62 -3 -41 -165
-41 -165 -11 55 c-7 30 -22 105 -34 165 l-23 110 -60 3 c-34 2 -63 0 -66 -2z"/>
<path d="M507 1714 c-4 -4 -7 -146 -7 -316 l0 -308 205 0 205 0 0 55 0 55
-135 0 -135 0 -2 258 -3 257 -60 3 c-34 2 -64 0 -68 -4z"/>
<path d="M1105 1560 c-59 -10 -87 -24 -122 -61 -100 -101 -77 -310 42 -384 42
-26 57 -30 125 -30 68 0 83 4 125 30 60 37 95 99 102 182 16 175 -105 291
-272 263z m98 -121 c54 -41 59 -161 11 -219 -55 -65 -145 -24 -159 73 -13 88
31 167 95 167 15 0 39 -9 53 -21z"/>
<path d="M1565 1563 c-11 -2 -30 -6 -42 -9 -36 -7 -89 -60 -108 -107 -36 -90
-17 -236 38 -295 64 -69 183 -70 261 -3 18 15 19 15 12 -29 -10 -64 -38 -90
-96 -90 -32 0 -56 6 -73 20 -19 15 -40 20 -86 20 -68 0 -73 -6 -41 -58 53 -87
262 -108 357 -36 66 50 68 62 68 334 l0 245 -62 3 -63 3 0 -37 0 -36 -40 36
c-22 20 -49 36 -59 36 -11 0 -25 2 -33 4 -7 2 -22 2 -33 -1z m126 -139 c42
-45 42 -153 -1 -200 -25 -26 -76 -32 -111 -14 -51 28 -66 141 -26 201 35 52
96 58 138 13z"/>
<path d="M1940 1217 c-80 -40 -22 -161 61 -127 53 22 55 105 3 129 -31 14 -33
14 -64 -2z"/>
</g>
</svg>
